<svg
   xmlns="http://www.w3.org/2000/svg"
   width="256"
   height="256"
   viewBox="0 0 100 100"
   version="1.1">
  <defs>
    <linearGradient id="argentGradient" x1="0%" y1="0%" x2="0%" y2="100%">
      <stop offset="0%" style="stop-color:#c9cdd3;stop-opacity:1" />
      <stop offset="15%" style="stop-color:#f7f8f9;stop-opacity:1" />
      <stop offset="50%" style="stop-color:#b4b9bf;stop-opacity:1" />
      <stop offset="85%" style="stop-color:#f2f3f5;stop-opacity:1" />
      <stop offset="100%" style="stop-color:#b9bdc3;stop-opacity:1" />
    </linearGradient>
  </defs>
  <!-- New background: near-black with a cool tint -->
  <rect x="0" y="0" width="100" height="100" fill="#0b1116"/>

  <g transform="translate(-43.5, -50)">
    <g transform="scale(1.25, 1)">
      <path
        style="fill:url(#argentGradient);stroke:none"
        d="m 59.703319,49.032049 c 0,0 -3.295177,42.949307 -3.101727,60.458981 0.205271,18.57782 12.993048,13.47765 13.588505,25.79845 1.437185,29.7373 -10.317188,94.20471 -8.763602,141.59612 0.409341,12.48661 6.734288,15.50862 13.490037,15.50862 6.755749,0 13.12993,-3.02201 13.539271,-15.50862 1.553587,-47.39141 -10.200786,-111.85882 -8.763601,-141.59612 0.595446,-12.3208 13.383234,-7.22063 13.588504,-25.79845 0.19345,-17.509674 -3.101727,-60.458981 -3.101727,-60.458981 l -2.855559,0 -1.280074,60.508221 c 0,1.48777 -1.477008,1.477 -1.477008,1.477 0,0 -1.427774,-0.004 -1.427774,-1.477 l -2.166289,-60.508221 -2.855548,0 -1.723187,60.508221 c 0,1.50475 -1.477008,1.477 -1.477008,1.477 0,0 -1.427774,0.0187 -1.427774,-1.477 l -1.723186,-60.508221 -2.855549,0 -2.215522,60.508221 c 0,1.51925 -1.378541,1.477 -1.378541,1.477 0,0 -1.477008,-0.006 -1.477008,-1.477 L 62.558878,49.032049 z" />
    </g>
  </g>
</svg>
